<svg xmlns="http://www.w3.org/2000/svg" x="0px" y="0px" width="100" height="100" viewBox="0 0 100 100">
<g id="Слой_2"><path d="M26.5,93C17.953,93,11,86.047,11,77.5v-51C11,17.953,17.953,11,26.5,11h51C86.047,11,93,17.953,93,26.5v51 C93,86.047,86.047,93,77.5,93H26.5z" opacity=".35"></path><path fill="#f2f2f2" d="M24.5,91C15.953,91,9,84.047,9,75.5v-51C9,15.953,15.953,9,24.5,9h51C84.047,9,91,15.953,91,24.5v51 C91,84.047,84.047,91,75.5,91H24.5z"></path><path fill="#bd7bc8" d="M75.5,15.5h-51c-4.971,0-9,4.029-9,9v51c0,4.971,4.029,9,9,9h51c4.971,0,9-4.029,9-9v-51 C84.5,19.529,80.471,15.5,75.5,15.5z"></path><path fill="#40396e" d="M75.5,86h-51C18.71,86,14,81.29,14,75.5v-51C14,18.71,18.71,14,24.5,14h51C81.29,14,86,18.71,86,24.5v51 C86,81.29,81.29,86,75.5,86z M24.5,17c-4.136,0-7.5,3.364-7.5,7.5v51c0,4.136,3.364,7.5,7.5,7.5h51c4.136,0,7.5-3.364,7.5-7.5v-51 c0-4.136-3.364-7.5-7.5-7.5H24.5z"></path><path fill="#fff" d="M53.918,40.801c1.429,0.892,2.607,1.627,3.947,2.463c-0.471,0.66-0.861,1.206-1.332,1.864 c-1.208-0.931-2.312-1.782-3.682-2.839c-0.202,1.751-0.38,3.299-0.574,4.981c-0.753,0-1.416,0-2.206,0 c0.31-1.553,0.607-3.039,0.994-4.977c-1.681,0.902-3.047,1.635-4.535,2.433c-0.279-0.612-0.506-1.108-0.831-1.819 c1.586-0.729,3.08-1.416,4.851-2.23c-1.41-0.895-2.651-1.684-4.014-2.549c0.538-0.675,0.958-1.203,1.448-1.818 c1.202,0.951,2.294,1.815,3.614,2.86C51.749,37.816,52.026,34,52.026,34l2.339,0.262c0,0-0.605,3.012-0.985,4.907 c1.62-0.904,2.964-1.654,4.47-2.494c0.285,0.654,0.524,1.203,0.844,1.939C57.102,39.344,55.624,40.02,53.918,40.801z"></path><path fill="#40396e" d="M57,26H39l-8,49h6l2.939-18H50c10.477,0,19-8.523,19-19C69,31.383,63.617,26,57,26z M50,51h-9.082l3.102-19 H57c3.309,0,6,2.691,6,6C63,45.168,57.168,51,50,51z"></path></g>
</svg>